<?xml version="1.0" encoding="UTF-8" standalone="no"?>
<!DOCTYPE svg PUBLIC "-//W3C//DTD SVG 1.1//EN"
 "http://www.w3.org/Graphics/SVG/1.1/DTD/svg11.dtd">
<!-- Generated by graphviz version 2.38.0 (20140413.2041)
 -->
<!-- Title: pastafarianism Pages: 1 -->
<svg width="864pt" height="366pt"
 viewBox="0.00 0.00 864.00 366.30" xmlns="http://www.w3.org/2000/svg" xmlns:xlink="http://www.w3.org/1999/xlink">
<g id="graph0" class="graph" transform="scale(1 1) rotate(0) translate(4 362.305)">
<title>pastafarianism</title>
<polygon fill="white" stroke="none" points="-4,4 -4,-362.305 860,-362.305 860,4 -4,4"/>
<!-- root -->
<g id="node1" class="node"><title>root</title>
<polygon fill="cyan" stroke="black" points="222,-298.544 222,-313.456 206.184,-324 183.816,-324 168,-313.456 168,-298.544 183.816,-288 206.184,-288 222,-298.544"/>
<text text-anchor="middle" x="195" y="-303.8" font-family="Times New Roman,serif" font-size="9.00">root</text>
</g>
<!-- proceed -->
<g id="node2" class="node"><title>proceed</title>
<polygon fill="orange" stroke="black" points="172,-252 118,-252 118,-216 172,-216 172,-252"/>
<text text-anchor="middle" x="145" y="-231.8" font-family="Times New Roman,serif" font-size="9.00">proceed</text>
</g>
<!-- root&#45;&gt;proceed -->
<g id="edge1" class="edge"><title>root&#45;&gt;proceed</title>
<path fill="none" stroke="black" d="M183.151,-288.411C177.225,-280.115 169.922,-269.891 163.297,-260.615"/>
<polygon fill="black" stroke="black" points="166.122,-258.55 157.462,-252.447 160.426,-262.618 166.122,-258.55"/>
</g>
<!-- abort -->
<g id="node10" class="node"><title>abort</title>
<polygon fill="cyan" stroke="black" points="273,-226.544 273,-241.456 257.184,-252 234.816,-252 219,-241.456 219,-226.544 234.816,-216 257.184,-216 273,-226.544"/>
<text text-anchor="middle" x="246" y="-231.8" font-family="Times New Roman,serif" font-size="9.00">abort</text>
</g>
<!-- root&#45;&gt;abort -->
<g id="edge9" class="edge"><title>root&#45;&gt;abort</title>
<path fill="none" stroke="black" d="M207.086,-288.411C213.311,-279.868 221.026,-269.278 227.941,-259.787"/>
<polygon fill="black" stroke="black" points="230.941,-261.613 234,-251.47 225.283,-257.491 230.941,-261.613"/>
</g>
<!-- preflight -->
<g id="node3" class="node"><title>preflight</title>
<ellipse fill="gray" stroke="black" cx="62" cy="-162" rx="27.2716" ry="18"/>
<text text-anchor="middle" x="62" y="-159.8" font-family="Times New Roman,serif" font-size="9.00">preflight</text>
</g>
<!-- proceed&#45;&gt;preflight -->
<g id="edge2" class="edge"><title>proceed&#45;&gt;preflight</title>
<path fill="none" stroke="black" d="M124.483,-215.697C112.86,-205.894 98.2565,-193.578 86.091,-183.318"/>
<polygon fill="black" stroke="black" points="88.0256,-180.371 78.1247,-176.599 83.5126,-185.722 88.0256,-180.371"/>
</g>
<!-- eternal_guard -->
<g id="node4" class="node"><title>eternal_guard</title>
<ellipse fill="ghostwhite" stroke="black" cx="145" cy="-162" rx="37.5556" ry="18"/>
<text text-anchor="middle" x="145" y="-159.8" font-family="Times New Roman,serif" font-size="9.00">eternal_guard</text>
</g>
<!-- proceed&#45;&gt;eternal_guard -->
<g id="edge3" class="edge"><title>proceed&#45;&gt;eternal_guard</title>
<path fill="none" stroke="black" d="M145,-215.697C145,-207.983 145,-198.712 145,-190.112"/>
<polygon fill="black" stroke="black" points="148.5,-190.104 145,-180.104 141.5,-190.104 148.5,-190.104"/>
</g>
<!-- mission -->
<g id="node5" class="node"><title>mission</title>
<polygon fill="orange" stroke="black" points="172,-108 118,-108 118,-72 172,-72 172,-108"/>
<text text-anchor="middle" x="145" y="-87.8" font-family="Times New Roman,serif" font-size="9.00">mission</text>
</g>
<!-- eternal_guard&#45;&gt;mission -->
<g id="edge4" class="edge"><title>eternal_guard&#45;&gt;mission</title>
<path fill="none" stroke="black" d="M145,-143.697C145,-135.983 145,-126.712 145,-118.112"/>
<polygon fill="black" stroke="black" points="148.5,-118.104 145,-108.104 141.5,-118.104 148.5,-118.104"/>
</g>
<!-- takeoff -->
<g id="node6" class="node"><title>takeoff</title>
<ellipse fill="gray" stroke="black" cx="27" cy="-18" rx="27" ry="18"/>
<text text-anchor="middle" x="27" y="-15.8" font-family="Times New Roman,serif" font-size="9.00">takeoff</text>
</g>
<!-- mission&#45;&gt;takeoff -->
<g id="edge5" class="edge"><title>mission&#45;&gt;takeoff</title>
<path fill="none" stroke="black" d="M117.928,-72.9406C99.2168,-61.8405 74.3739,-47.1032 55.3842,-35.8381"/>
<polygon fill="black" stroke="black" points="56.9709,-32.7099 46.5846,-30.618 53.3995,-38.7303 56.9709,-32.7099"/>
</g>
<!-- waypoint1 -->
<g id="node7" class="node"><title>waypoint1</title>
<ellipse fill="gray" stroke="black" cx="104" cy="-18" rx="32.1641" ry="18"/>
<text text-anchor="middle" x="104" y="-15.8" font-family="Times New Roman,serif" font-size="9.00">waypoint1</text>
</g>
<!-- mission&#45;&gt;waypoint1 -->
<g id="edge6" class="edge"><title>mission&#45;&gt;waypoint1</title>
<path fill="none" stroke="black" d="M134.865,-71.6966C130.028,-63.4374 124.145,-53.394 118.818,-44.2994"/>
<polygon fill="black" stroke="black" points="121.81,-42.4822 113.736,-35.6223 115.77,-46.0201 121.81,-42.4822"/>
</g>
<!-- waypoint2 -->
<g id="node8" class="node"><title>waypoint2</title>
<ellipse fill="gray" stroke="black" cx="187" cy="-18" rx="32.1641" ry="18"/>
<text text-anchor="middle" x="187" y="-15.8" font-family="Times New Roman,serif" font-size="9.00">waypoint2</text>
</g>
<!-- mission&#45;&gt;waypoint2 -->
<g id="edge7" class="edge"><title>mission&#45;&gt;waypoint2</title>
<path fill="none" stroke="black" d="M155.382,-71.6966C160.338,-63.4374 166.364,-53.394 171.82,-44.2994"/>
<polygon fill="black" stroke="black" points="174.883,-45.998 177.027,-35.6223 168.88,-42.3965 174.883,-45.998"/>
</g>
<!-- land -->
<g id="node9" class="node"><title>land</title>
<ellipse fill="gray" stroke="black" cx="264" cy="-18" rx="27" ry="18"/>
<text text-anchor="middle" x="264" y="-15.8" font-family="Times New Roman,serif" font-size="9.00">land</text>
</g>
<!-- mission&#45;&gt;land -->
<g id="edge8" class="edge"><title>mission&#45;&gt;land</title>
<path fill="none" stroke="black" d="M172.003,-73.1159C190.947,-61.9726 216.23,-47.1001 235.497,-35.7666"/>
<polygon fill="black" stroke="black" points="237.304,-38.764 244.149,-30.677 233.755,-32.7305 237.304,-38.764"/>
</g>
<!-- Attempt Landing -->
<g id="node11" class="node"><title>Attempt Landing</title>
<ellipse fill="gray" stroke="black" cx="246" cy="-162" rx="45.7216" ry="18"/>
<text text-anchor="middle" x="246" y="-159.8" font-family="Times New Roman,serif" font-size="9.00">Attempt Landing</text>
</g>
<!-- abort&#45;&gt;Attempt Landing -->
<g id="edge10" class="edge"><title>abort&#45;&gt;Attempt Landing</title>
<path fill="none" stroke="black" d="M246,-215.697C246,-207.983 246,-198.712 246,-190.112"/>
<polygon fill="black" stroke="black" points="249.5,-190.104 246,-180.104 242.5,-190.104 249.5,-190.104"/>
</g>
<!-- Fullstop -->
<g id="node12" class="node"><title>Fullstop</title>
<ellipse fill="gray" stroke="black" cx="337" cy="-162" rx="27.2716" ry="18"/>
<text text-anchor="middle" x="337" y="-159.8" font-family="Times New Roman,serif" font-size="9.00">Fullstop</text>
</g>
<!-- abort&#45;&gt;Fullstop -->
<g id="edge11" class="edge"><title>abort&#45;&gt;Fullstop</title>
<path fill="none" stroke="black" d="M263.116,-219.834C276.844,-209.274 296.31,-194.3 311.815,-182.373"/>
<polygon fill="black" stroke="black" points="314.168,-184.979 319.96,-176.107 309.9,-179.43 314.168,-184.979"/>
</g>
<!-- Writer -->
<g id="node13" class="node"><title>Writer</title>
<ellipse fill="gray" stroke="blue" cx="384" cy="-306" rx="27" ry="18"/>
<text text-anchor="middle" x="384" y="-304.4" font-family="Times New Roman,serif" font-size="7.00" fill="blue">Writer</text>
</g>
<!-- /system_status -->
<g id="node14" class="node"><title>/system_status</title>
<polygon fill="white" stroke="blue" points="339,-314.5 265,-314.5 265,-297.5 339,-297.5 339,-314.5"/>
<text text-anchor="middle" x="302" y="-304.1" font-family="Times New Roman,serif" font-size="8.00" fill="blue">/system_status: &#45;</text>
</g>
<!-- Writer&#45;&gt;/system_status -->
<g id="edge13" class="edge"><title>Writer&#45;&gt;/system_status</title>
<path fill="none" stroke="blue" d="M356.673,-306C354.21,-306 351.747,-306 349.283,-306"/>
<polygon fill="blue" stroke="blue" points="349.156,-302.5 339.156,-306 349.156,-309.5 349.156,-302.5"/>
</g>
<!-- /last_heartbeat -->
<g id="node15" class="node"><title>/last_heartbeat</title>
<polygon fill="white" stroke="blue" points="504.5,-314.5 429.5,-314.5 429.5,-297.5 504.5,-297.5 504.5,-314.5"/>
<text text-anchor="middle" x="467" y="-304.1" font-family="Times New Roman,serif" font-size="8.00" fill="blue">/last_heartbeat: &#45;</text>
</g>
<!-- Writer&#45;&gt;/last_heartbeat -->
<g id="edge15" class="edge"><title>Writer&#45;&gt;/last_heartbeat</title>
<path fill="none" stroke="blue" d="M411.234,-306C413.839,-306 416.444,-306 419.049,-306"/>
<polygon fill="blue" stroke="blue" points="419.097,-309.5 429.097,-306 419.097,-302.5 419.097,-309.5"/>
</g>
<!-- /armed -->
<g id="node16" class="node"><title>/armed</title>
<polygon fill="white" stroke="blue" points="569.5,-314.5 522.5,-314.5 522.5,-297.5 569.5,-297.5 569.5,-314.5"/>
<text text-anchor="middle" x="546" y="-304.1" font-family="Times New Roman,serif" font-size="8.00" fill="blue">/armed: &#45;</text>
</g>
<!-- Writer&#45;&gt;/armed -->
<g id="edge17" class="edge"><title>Writer&#45;&gt;/armed</title>
<path fill="none" stroke="blue" d="M398.217,-321.568C406.37,-329.319 417.293,-337.894 429,-342 460.454,-353.034 472.737,-353.565 504,-342 514.716,-338.036 524.542,-329.982 531.992,-322.495"/>
<polygon fill="blue" stroke="blue" points="534.868,-324.538 539.072,-314.814 529.721,-319.794 534.868,-324.538"/>
</g>
<!-- /mode -->
<g id="node17" class="node"><title>/mode</title>
<polygon fill="white" stroke="blue" points="632.5,-314.5 587.5,-314.5 587.5,-297.5 632.5,-297.5 632.5,-314.5"/>
<text text-anchor="middle" x="610" y="-304.1" font-family="Times New Roman,serif" font-size="8.00" fill="blue">/mode: &#45;</text>
</g>
<!-- Writer&#45;&gt;/mode -->
<g id="edge19" class="edge"><title>Writer&#45;&gt;/mode</title>
<path fill="none" stroke="blue" d="M398.217,-321.568C406.37,-329.319 417.293,-337.894 429,-342 488.134,-362.743 511.493,-364.451 570,-342 580.377,-338.018 589.748,-329.962 596.807,-322.479"/>
<polygon fill="blue" stroke="blue" points="599.565,-324.642 603.497,-314.804 594.288,-320.042 599.565,-324.642"/>
</g>
<!-- /is_armable -->
<g id="node18" class="node"><title>/is_armable</title>
<polygon fill="white" stroke="blue" points="713.5,-314.5 650.5,-314.5 650.5,-297.5 713.5,-297.5 713.5,-314.5"/>
<text text-anchor="middle" x="682" y="-304.1" font-family="Times New Roman,serif" font-size="8.00" fill="blue">/is_armable: &#45;</text>
</g>
<!-- Writer&#45;&gt;/is_armable -->
<g id="edge21" class="edge"><title>Writer&#45;&gt;/is_armable</title>
<path fill="none" stroke="blue" d="M398.217,-321.568C406.37,-329.319 417.293,-337.894 429,-342 471.778,-357.006 589.923,-356.123 633,-342 645.466,-337.913 657.377,-329.309 666.333,-321.538"/>
<polygon fill="blue" stroke="blue" points="668.965,-323.872 673.937,-314.517 664.216,-318.73 668.965,-323.872"/>
</g>
<!-- /voltage -->
<g id="node19" class="node"><title>/voltage</title>
<polygon fill="white" stroke="blue" points="784,-314.5 732,-314.5 732,-297.5 784,-297.5 784,-314.5"/>
<text text-anchor="middle" x="758" y="-304.1" font-family="Times New Roman,serif" font-size="8.00" fill="blue">/voltage: &#45;</text>
</g>
<!-- Writer&#45;&gt;/voltage -->
<g id="edge23" class="edge"><title>Writer&#45;&gt;/voltage</title>
<path fill="none" stroke="blue" d="M398.217,-321.568C406.37,-329.319 417.293,-337.894 429,-342 488.763,-362.964 654.353,-363.292 714,-342 725.294,-337.968 735.779,-329.655 743.678,-322.031"/>
<polygon fill="blue" stroke="blue" points="746.214,-324.444 750.65,-314.823 741.182,-319.577 746.214,-324.444"/>
</g>
<!-- /offleash -->
<g id="node20" class="node"><title>/offleash</title>
<polygon fill="white" stroke="blue" points="856,-314.5 802,-314.5 802,-297.5 856,-297.5 856,-314.5"/>
<text text-anchor="middle" x="829" y="-304.1" font-family="Times New Roman,serif" font-size="8.00" fill="blue">/offleash: &#45;</text>
</g>
<!-- Writer&#45;&gt;/offleash -->
<g id="edge25" class="edge"><title>Writer&#45;&gt;/offleash</title>
<path fill="none" stroke="blue" d="M398.217,-321.568C406.37,-329.319 417.293,-337.894 429,-342 466.221,-355.056 746.779,-355.056 784,-342 795.612,-337.927 806.454,-329.457 814.585,-321.756"/>
<polygon fill="blue" stroke="blue" points="817.21,-324.079 821.741,-314.502 812.226,-319.163 817.21,-324.079"/>
</g>
<!-- /system_status&#45;&gt;eternal_guard -->
<g id="edge12" class="edge"><title>/system_status&#45;&gt;eternal_guard</title>
<path fill="none" stroke="blue" d="M302.527,-297.278C303.248,-280.41 302.575,-239.872 282,-216 280.274,-213.998 223.3,-192.351 183.377,-177.35"/>
<polygon fill="blue" stroke="blue" points="184.482,-174.026 173.89,-173.789 182.022,-180.58 184.482,-174.026"/>
</g>
<!-- /last_heartbeat&#45;&gt;eternal_guard -->
<g id="edge14" class="edge"><title>/last_heartbeat&#45;&gt;eternal_guard</title>
<path fill="none" stroke="blue" d="M455.215,-297.463C429.037,-280.961 363.715,-241.11 305,-216 256.147,-195.107 241.267,-197.214 191,-180 188.445,-179.125 185.817,-178.206 183.173,-177.267"/>
<polygon fill="blue" stroke="blue" points="184.228,-173.927 173.634,-173.824 181.852,-180.511 184.228,-173.927"/>
</g>
<!-- /armed&#45;&gt;eternal_guard -->
<g id="edge16" class="edge"><title>/armed&#45;&gt;eternal_guard</title>
<path fill="none" stroke="blue" d="M531.615,-297.409C525.856,-294.417 519.143,-290.989 513,-288 443.972,-254.414 428.81,-240.323 356,-216 284.809,-192.218 263.043,-201.06 191,-180 188.242,-179.194 185.412,-178.305 182.576,-177.368"/>
<polygon fill="blue" stroke="blue" points="183.607,-174.022 173.012,-174.057 181.316,-180.636 183.607,-174.022"/>
</g>
<!-- /mode&#45;&gt;eternal_guard -->
<g id="edge18" class="edge"><title>/mode&#45;&gt;eternal_guard</title>
<path fill="none" stroke="blue" d="M596.652,-297.378C565.55,-279.979 485.392,-237.209 413,-216 317.077,-187.896 287.663,-205.443 191,-180 188.221,-179.269 185.376,-178.435 182.529,-177.538"/>
<polygon fill="blue" stroke="blue" points="183.537,-174.184 172.943,-174.304 181.3,-180.817 183.537,-174.184"/>
</g>
<!-- /is_armable&#45;&gt;eternal_guard -->
<g id="edge20" class="edge"><title>/is_armable&#45;&gt;eternal_guard</title>
<path fill="none" stroke="blue" d="M667.872,-297.309C634.961,-279.764 550.184,-236.709 474,-216 351.649,-182.741 314.149,-210.171 191,-180 188.209,-179.316 185.354,-178.517 182.502,-177.645"/>
<polygon fill="blue" stroke="blue" points="183.497,-174.288 172.903,-174.462 181.293,-180.932 183.497,-174.288"/>
</g>
<!-- /voltage&#45;&gt;eternal_guard -->
<g id="edge22" class="edge"><title>/voltage&#45;&gt;eternal_guard</title>
<path fill="none" stroke="blue" d="M743.561,-297.402C709.104,-279.666 618.895,-235.562 538,-216 387.294,-179.556 342.013,-215.15 191,-180 188.028,-179.308 184.986,-178.477 181.952,-177.559"/>
<polygon fill="blue" stroke="blue" points="182.98,-174.212 172.387,-174.394 180.781,-180.858 182.98,-174.212"/>
</g>
<!-- /offleash&#45;&gt;eternal_guard -->
<g id="edge24" class="edge"><title>/offleash&#45;&gt;eternal_guard</title>
<path fill="none" stroke="blue" d="M814.49,-297.455C779.438,-279.636 686.912,-235.017 604,-216 424.412,-174.809 370.792,-220.294 191,-180 188.022,-179.333 184.976,-178.519 181.94,-177.613"/>
<polygon fill="blue" stroke="blue" points="182.962,-174.265 172.369,-174.471 180.779,-180.915 182.962,-174.265"/>
</g>
</g>
</svg>
