<?xml version="1.0" encoding="UTF-8" standalone="no"?>
<!DOCTYPE svg PUBLIC "-//W3C//DTD SVG 1.1//EN"
 "http://www.w3.org/Graphics/SVG/1.1/DTD/svg11.dtd">
<!-- Generated by graphviz version 2.38.0 (20140413.2041)
 -->
<!-- Title: pastafarianism Pages: 1 -->
<svg width="209pt" height="116pt"
 viewBox="0.00 0.00 209.43 116.00" xmlns="http://www.w3.org/2000/svg" xmlns:xlink="http://www.w3.org/1999/xlink">
<g id="graph0" class="graph" transform="scale(1 1) rotate(0) translate(4 112)">
<title>pastafarianism</title>
<polygon fill="white" stroke="none" points="-4,4 -4,-112 205.426,-112 205.426,4 -4,4"/>
<!-- Sequence -->
<g id="node1" class="node"><title>Sequence</title>
<polygon fill="orange" stroke="black" points="127.713,-108 73.7128,-108 73.7128,-72 127.713,-72 127.713,-108"/>
<text text-anchor="middle" x="100.713" y="-87.8" font-family="Times New Roman,serif" font-size="9.00">Sequence</text>
</g>
<!-- Action 1 -->
<g id="node2" class="node"><title>Action 1</title>
<ellipse fill="gray" stroke="black" cx="27.7128" cy="-18" rx="27.9273" ry="18"/>
<text text-anchor="middle" x="27.7128" y="-15.8" font-family="Times New Roman,serif" font-size="9.00">Action 1</text>
</g>
<!-- Sequence&#45;&gt;Action 1 -->
<g id="edge1" class="edge"><title>Sequence&#45;&gt;Action 1</title>
<path fill="none" stroke="black" d="M82.6679,-71.6966C72.7471,-62.1836 60.358,-50.3036 49.8555,-40.2327"/>
<polygon fill="black" stroke="black" points="52.244,-37.6739 42.6037,-33.279 47.3991,-42.7264 52.244,-37.6739"/>
</g>
<!-- Action 2 -->
<g id="node3" class="node"><title>Action 2</title>
<ellipse fill="gray" stroke="black" cx="100.713" cy="-18" rx="27.9273" ry="18"/>
<text text-anchor="middle" x="100.713" y="-15.8" font-family="Times New Roman,serif" font-size="9.00">Action 2</text>
</g>
<!-- Sequence&#45;&gt;Action 2 -->
<g id="edge2" class="edge"><title>Sequence&#45;&gt;Action 2</title>
<path fill="none" stroke="black" d="M100.713,-71.6966C100.713,-63.9827 100.713,-54.7125 100.713,-46.1124"/>
<polygon fill="black" stroke="black" points="104.213,-46.1043 100.713,-36.1043 97.2129,-46.1044 104.213,-46.1043"/>
</g>
<!-- Action 3 -->
<g id="node4" class="node"><title>Action 3</title>
<ellipse fill="gray" stroke="black" cx="173.713" cy="-18" rx="27.9273" ry="18"/>
<text text-anchor="middle" x="173.713" y="-15.8" font-family="Times New Roman,serif" font-size="9.00">Action 3</text>
</g>
<!-- Sequence&#45;&gt;Action 3 -->
<g id="edge3" class="edge"><title>Sequence&#45;&gt;Action 3</title>
<path fill="none" stroke="black" d="M118.758,-71.6966C128.678,-62.1836 141.068,-50.3036 151.57,-40.2327"/>
<polygon fill="black" stroke="black" points="154.026,-42.7264 158.822,-33.279 149.182,-37.6739 154.026,-42.7264"/>
</g>
</g>
</svg>
